<svg xmlns="http://www.w3.org/2000/svg" viewBox="0 0 900 1600">
  <rect width="900" height="1600" fill="none"/>

  <g opacity="0.95">
    <path d="M470 260c-70 0-126 54-126 120 0 66 56 120 126 120s126-54 126-120c0-66-56-120-126-120z" fill="#000" opacity="0.70"/>
    <path d="M318 340c32-88 96-132 196-132 92 0 154 36 188 112-62 26-126 40-192 42-74 2-138-8-192-22z" fill="#000" opacity="0.78"/>
    <path d="M266 380c0-26 18-48 46-56 58-16 124-24 194-24s136 8 194 24c28 8 46 30 46 56v22c-84 30-170 44-240 46-74 2-160-12-240-46v-22z" fill="#000" opacity="0.86"/>

    <path d="M330 500c36-44 88-72 140-72 62 0 118 30 154 80 12 16 18 36 18 56v86c0 154-94 300-206 300-104 0-192-132-192-296v-94c0-22 8-42 22-60 20-26 40-46 64-60z" fill="#000" opacity="0.86"/>
    <path d="M254 742c38-70 104-118 180-130 64-10 120 2 172 36 46 30 78 74 92 126 8 30 10 58 6 88-6 52-20 110-32 154-14 54-40 110-78 158-36 44-86 74-156 74-60 0-112-18-154-56-52-46-86-120-106-208-20-88-18-168 76-242z" fill="#000" opacity="0.80"/>

    <path d="M610 680c84 16 152 54 214 124l-28 26c-64-62-128-92-198-102-54-8-100-2-142 16l-14-36c54-20 106-30 168-28z" fill="#000" opacity="0.66"/>
    <path d="M618 676c46 8 88 30 126 70l-18 16c-38-36-78-52-120-60-36-6-66-2-94 10l-10-22c34-12 70-18 116-14z" fill="#000" opacity="0.62"/>

    <path d="M520 784c40-26 78-38 116-38 64 0 126 34 186 102l-24 22c-54-58-106-86-156-86-34 0-68 12-104 36-26 18-56 44-92 80l-24-26c38-38 70-66 98-90z" fill="#000" opacity="0.70"/>
    <path d="M430 870c24-6 52-4 80 8 32 14 58 40 72 72-32 14-70 16-112 6-30-8-54-22-72-42 8-18 18-32 32-44z" fill="#000" opacity="0.62"/>

    <path d="M586 748c60 16 118 46 174 94-70 38-154 58-246 58-30 0-60-2-90-6 40-56 90-96 162-146z" fill="#000" opacity="0.36"/>
    <path d="M604 782c52 14 102 38 150 74-62 34-136 50-214 50-26 0-52-2-78-6 32-44 72-76 142-118z" fill="#000" opacity="0.30"/>
  </g>

  <g fill="none" stroke="#e60012" stroke-opacity="0.62" stroke-width="10" stroke-linecap="round" stroke-linejoin="round">
    <path d="M318 340c32-88 96-132 196-132 92 0 154 36 188 112"/>
    <path d="M266 380c0-26 18-48 46-56 58-16 124-24 194-24s136 8 194 24c28 8 46 30 46 56v22"/>
    <path d="M330 500c36-44 88-72 140-72 62 0 118 30 154 80"/>
    <path d="M254 742c38-70 104-118 180-130 64-10 120 2 172 36 46 30 78 74 92 126"/>
    <path d="M520 784c40-26 78-38 116-38 64 0 126 34 186 102"/>
    <path d="M586 748c60 16 118 46 174 94"/>
  </g>

  <g fill="none" stroke="#e60012" stroke-opacity="0.28" stroke-width="18" stroke-linecap="round" stroke-linejoin="round">
    <path d="M430 870c24-6 52-4 80 8 32 14 58 40 72 72"/>
    <path d="M610 680c84 16 152 54 214 124"/>
  </g>
</svg>
