<svg xmlns="http://www.w3.org/2000/svg" viewBox="0 0 1600 900" preserveAspectRatio="xMidYMid slice">
  <defs>
    <linearGradient id="g" x1="0" y1="0" x2="1" y2="1">
      <stop offset="0" stop-color="#0b0b0f"/>
      <stop offset="1" stop-color="#05050a"/>
    </linearGradient>
    <radialGradient id="r" cx="64%" cy="28%" r="62%">
      <stop offset="0" stop-color="#e60012" stop-opacity="0.42"/>
      <stop offset="1" stop-color="#e60012" stop-opacity="0"/>
    </radialGradient>
    <pattern id="dots" width="18" height="18" patternUnits="userSpaceOnUse">
      <circle cx="4" cy="4" r="2" fill="#ffffff" opacity="0.14"/>
      <circle cx="13" cy="10" r="1.4" fill="#ffffff" opacity="0.10"/>
    </pattern>
  </defs>

  <rect width="1600" height="900" fill="url(#g)"/>
  <rect width="1600" height="900" fill="url(#r)"/>

  <g opacity="0.85">
    <polygon points="-40,120 520,-20 620,80 80,250" fill="#e60012" opacity="0.22"/>
    <polygon points="980,40 1680,-40 1660,260 1020,220" fill="#ffffff" opacity="0.08"/>
    <polygon points="1120,520 1660,380 1680,900 940,900" fill="#e60012" opacity="0.12"/>
    <polygon points="-80,780 560,580 680,720 60,940" fill="#ffffff" opacity="0.06"/>
  </g>

  <g opacity="0.55">
    <rect x="0" y="0" width="1600" height="900" fill="url(#dots)"/>
  </g>

  <g transform="translate(980 120)" opacity="0.9">
    <g transform="skewX(-10)">
      <path d="M190 62c38 18 70 54 82 98 18 68-10 132-60 170-38 28-88 40-140 36-44-4-78-18-114-46-54-44-78-116-58-182 12-40 40-74 74-92 36-18 76-18 108 0 38-26 72-26 108 16z" fill="#0b0b0f" opacity="0.75"/>
      <path d="M72 146c26-54 84-92 154-92 68 0 124 34 154 86-38 52-96 86-162 88-62 2-114-26-146-82z" fill="#ffffff" opacity="0.10"/>
      <path d="M118 126c16-20 44-34 78-34 34 0 66 14 88 38-18 12-40 18-66 18-36 0-72-10-100-22z" fill="#e60012" opacity="0.28"/>
      <path d="M84 256c60 46 164 52 244 10-6 48-28 92-62 124-40 38-96 56-158 48-50-6-92-30-122-68 6-44 40-88 98-114z" fill="#0b0b0f" opacity="0.78"/>
      <path d="M220 86c24 10 42 28 52 52-30 18-70 28-110 26-30-2-56-10-76-22 22-36 72-64 134-56z" fill="#ffffff" opacity="0.06"/>
      <path d="M306 230c58 8 108 34 150 82l-22 18c-44-40-92-56-138-56-30 0-54 6-76 16l-10-24c30-14 60-22 96-36z" fill="#e60012" opacity="0.20"/>
      <path d="M170 210l12 16c-30 24-52 50-66 80l-24-10c18-38 42-62 78-86z" fill="#ffffff" opacity="0.08"/>
    </g>
  </g>

  <g opacity="0.34">
    <path d="M0 726c240-86 520-148 820-156 346-10 560 44 780 106v224H0V726z" fill="#000000"/>
    <path d="M0 742c274-78 542-120 832-126 308-8 556 34 768 96" fill="none" stroke="#ffffff" stroke-opacity="0.14" stroke-width="2"/>
  </g>
</svg>
