<svg xmlns="http://www.w3.org/2000/svg" viewBox="0 0 900 1600" preserveAspectRatio="xMidYMid meet">
  <rect width="900" height="1600" fill="none"/>

  <g opacity="0.55">
    <circle cx="160" cy="520" r="3" fill="#e60012"/>
    <circle cx="210" cy="620" r="2" fill="#e60012" opacity="0.8"/>
    <circle cx="720" cy="480" r="2" fill="#e60012" opacity="0.8"/>
    <circle cx="680" cy="760" r="3" fill="#e60012" opacity="0.7"/>
    <circle cx="540" cy="980" r="2" fill="#e60012" opacity="0.6"/>
    <circle cx="320" cy="920" r="2" fill="#e60012" opacity="0.55"/>
  </g>

  <g id="sil">
    <path d="M520 168c-30 0-56 16-66 40-8 18-6 38 4 54 12 20 34 32 60 32 30 0 56-16 66-40 8-18 6-38-4-54-12-20-34-32-60-32z" fill="#05050a" opacity="0.92"/>
    <path d="M410 138c4-18 26-34 56-34h96c28 0 50 14 56 32l16 96c-56 18-102 26-152 26-50 0-98-8-152-26l80-94z" fill="#05050a" opacity="0.94"/>
    <path d="M452 68h136c22 0 40 16 40 36v10c0 20-18 36-40 36H452c-22 0-40-16-40-36v-10c0-20 18-36 40-36z" fill="#05050a" opacity="0.96"/>

    <path d="M474 320c34-18 70-18 106 0 46 24 76 74 76 126 0 58-10 110-18 160-14 88-44 186-96 260-38 54-86 90-150 90-62 0-114-30-154-80-52-64-86-162-104-262-10-60-18-116-18-172 0-54 30-104 78-128 40-20 84-18 120 8 30-24 92-24 160-2z" fill="#05050a" opacity="0.92"/>

    <path d="M232 750c38-74 116-128 204-138 84-10 160 18 220 82 56 60 78 140 64 236-12 86-44 170-96 240-46 62-106 102-190 102-70 0-132-30-180-90-68-84-116-216-126-346-6-76 22-146 104-186z" fill="#05050a" opacity="0.86"/>

    <path d="M540 650c98 10 176 46 244 118l-24 20c-60-66-124-96-202-104-58-6-104 0-150 18l-14-34c58-22 106-30 146-18z" fill="#05050a" opacity="0.72"/>

    <path d="M492 730c26-22 54-34 84-34 56 0 116 36 180 108l-20 18c-56-66-104-98-150-98-24 0-48 10-72 30-30 24-64 60-104 108l-22-22c46-54 80-92 104-110z" fill="#05050a" opacity="0.76"/>

    <path d="M616 704c40 10 88 34 144 72-48 34-104 54-168 60-28 2-58 2-88-2 32-56 64-94 112-130z" fill="#05050a" opacity="0.30"/>

    <path d="M590 716c26 10 58 28 96 54-34 22-72 34-114 36-20 2-40 0-62-2 22-36 44-60 80-86z" fill="#05050a" opacity="0.26"/>

    <path d="M402 1060c-8 58-14 120-16 182-2 76 8 146 28 210h72c-22-56-34-124-34-202 0-64 6-126 18-184-22-2-46-4-68-6z" fill="#05050a" opacity="0.90"/>
    <path d="M520 1068c-10 58-14 120-14 182 0 72 10 140 28 202h72c-22-54-34-120-34-198 0-66 6-130 18-190-22 2-46 4-70 4z" fill="#05050a" opacity="0.90"/>

    <path d="M448 300c-6 34 10 66 42 88 26 18 66 20 108 4 14-6 26-14 36-24-18-32-48-56-84-66-36-10-70-8-102-2z" fill="#05050a" opacity="0.88"/>
  </g>

  <g fill="none" stroke="#ff0030" stroke-linecap="round" stroke-linejoin="round">
    <use href="#sil"/>
  </g>

  <g opacity="0.85" fill="none" stroke-linecap="round" stroke-linejoin="round">
    <use href="#sil" stroke="#ff0030" stroke-opacity="0.18" stroke-width="30"/>
    <use href="#sil" stroke="#ff0030" stroke-opacity="0.34" stroke-width="18"/>
    <use href="#sil" stroke="#ff0030" stroke-opacity="0.56" stroke-width="10"/>
  </g>

  <g opacity="0.35">
    <path d="M0 1340c240-86 520-148 820-156 346-10 560 44 780 106v310H0v-260z" fill="#000"/>
  </g>
</svg>
